<mxfile host="app.diagrams.net" agent="Mozilla/5.0 (Macintosh; Intel Mac OS X 10_15_7) AppleWebKit/537.36 (KHTML, like Gecko) Chrome/128.0.0.0 Safari/537.36" version="24.7.12">
  <diagram name="Page-1" id="xwJV4donlD4Fhw4GlMJP">
    <mxGraphModel dx="2271" dy="993" grid="1" gridSize="10" guides="1" tooltips="1" connect="1" arrows="1" fold="1" page="1" pageScale="1" pageWidth="827" pageHeight="1169" math="0" shadow="0">
      <root>
        <mxCell id="0" />
        <mxCell id="1" parent="0" />
        <mxCell id="D6WgMD9xpRHrj_kQxUhB-1" value="Ride Sharing Requirments:&lt;br&gt;&lt;br&gt;Ride Booking:&lt;br&gt;&lt;br&gt;search, accept, on going ride, completiion&amp;nbsp;&lt;br&gt;matching of cab and customer&lt;div&gt;cost estimation&lt;/div&gt;&lt;div&gt;user should be able to share a ride&lt;/div&gt;&lt;div&gt;matching: 1 km radius&lt;/div&gt;" style="whiteSpace=wrap;html=1;aspect=fixed;" vertex="1" parent="1">
          <mxGeometry x="30" y="50" width="250" height="250" as="geometry" />
        </mxCell>
        <mxCell id="D6WgMD9xpRHrj_kQxUhB-2" value="User" style="swimlane;fontStyle=1;align=center;verticalAlign=top;childLayout=stackLayout;horizontal=1;startSize=26;horizontalStack=0;resizeParent=1;resizeParentMax=0;resizeLast=0;collapsible=1;marginBottom=0;whiteSpace=wrap;html=1;" vertex="1" parent="1">
          <mxGeometry x="130" y="410" width="160" height="104" as="geometry" />
        </mxCell>
        <mxCell id="D6WgMD9xpRHrj_kQxUhB-3" value="+ name: String&lt;div&gt;-phNo: String&lt;/div&gt;" style="text;strokeColor=none;fillColor=none;align=left;verticalAlign=top;spacingLeft=4;spacingRight=4;overflow=hidden;rotatable=0;points=[[0,0.5],[1,0.5]];portConstraint=eastwest;whiteSpace=wrap;html=1;" vertex="1" parent="D6WgMD9xpRHrj_kQxUhB-2">
          <mxGeometry y="26" width="160" height="44" as="geometry" />
        </mxCell>
        <mxCell id="D6WgMD9xpRHrj_kQxUhB-4" value="" style="line;strokeWidth=1;fillColor=none;align=left;verticalAlign=middle;spacingTop=-1;spacingLeft=3;spacingRight=3;rotatable=0;labelPosition=right;points=[];portConstraint=eastwest;strokeColor=inherit;" vertex="1" parent="D6WgMD9xpRHrj_kQxUhB-2">
          <mxGeometry y="70" width="160" height="8" as="geometry" />
        </mxCell>
        <mxCell id="D6WgMD9xpRHrj_kQxUhB-5" value="+ method(type): type" style="text;strokeColor=none;fillColor=none;align=left;verticalAlign=top;spacingLeft=4;spacingRight=4;overflow=hidden;rotatable=0;points=[[0,0.5],[1,0.5]];portConstraint=eastwest;whiteSpace=wrap;html=1;" vertex="1" parent="D6WgMD9xpRHrj_kQxUhB-2">
          <mxGeometry y="78" width="160" height="26" as="geometry" />
        </mxCell>
        <mxCell id="D6WgMD9xpRHrj_kQxUhB-6" value="SedanCab" style="swimlane;fontStyle=1;align=center;verticalAlign=top;childLayout=stackLayout;horizontal=1;startSize=26;horizontalStack=0;resizeParent=1;resizeParentMax=0;resizeLast=0;collapsible=1;marginBottom=0;whiteSpace=wrap;html=1;" vertex="1" parent="1">
          <mxGeometry x="220" y="610" width="160" height="124" as="geometry" />
        </mxCell>
        <mxCell id="D6WgMD9xpRHrj_kQxUhB-7" value="+CabNo: String&lt;div&gt;- driver : Driver&lt;/div&gt;&lt;div&gt;- vehicleType&lt;/div&gt;&lt;div&gt;&lt;br&gt;&lt;/div&gt;" style="text;strokeColor=none;fillColor=none;align=left;verticalAlign=top;spacingLeft=4;spacingRight=4;overflow=hidden;rotatable=0;points=[[0,0.5],[1,0.5]];portConstraint=eastwest;whiteSpace=wrap;html=1;" vertex="1" parent="D6WgMD9xpRHrj_kQxUhB-6">
          <mxGeometry y="26" width="160" height="64" as="geometry" />
        </mxCell>
        <mxCell id="D6WgMD9xpRHrj_kQxUhB-8" value="" style="line;strokeWidth=1;fillColor=none;align=left;verticalAlign=middle;spacingTop=-1;spacingLeft=3;spacingRight=3;rotatable=0;labelPosition=right;points=[];portConstraint=eastwest;strokeColor=inherit;" vertex="1" parent="D6WgMD9xpRHrj_kQxUhB-6">
          <mxGeometry y="90" width="160" height="8" as="geometry" />
        </mxCell>
        <mxCell id="D6WgMD9xpRHrj_kQxUhB-9" value="+ method(type): type" style="text;strokeColor=none;fillColor=none;align=left;verticalAlign=top;spacingLeft=4;spacingRight=4;overflow=hidden;rotatable=0;points=[[0,0.5],[1,0.5]];portConstraint=eastwest;whiteSpace=wrap;html=1;" vertex="1" parent="D6WgMD9xpRHrj_kQxUhB-6">
          <mxGeometry y="98" width="160" height="26" as="geometry" />
        </mxCell>
        <mxCell id="D6WgMD9xpRHrj_kQxUhB-10" value="Driver&amp;nbsp;" style="swimlane;fontStyle=1;align=center;verticalAlign=top;childLayout=stackLayout;horizontal=1;startSize=26;horizontalStack=0;resizeParent=1;resizeParentMax=0;resizeLast=0;collapsible=1;marginBottom=0;whiteSpace=wrap;html=1;" vertex="1" parent="1">
          <mxGeometry x="610" y="636" width="160" height="98" as="geometry" />
        </mxCell>
        <mxCell id="D6WgMD9xpRHrj_kQxUhB-11" value="+ name: String&lt;div&gt;-phNo: String&lt;/div&gt;&lt;div&gt;-name: String&lt;/div&gt;" style="text;strokeColor=none;fillColor=none;align=left;verticalAlign=top;spacingLeft=4;spacingRight=4;overflow=hidden;rotatable=0;points=[[0,0.5],[1,0.5]];portConstraint=eastwest;whiteSpace=wrap;html=1;" vertex="1" parent="D6WgMD9xpRHrj_kQxUhB-10">
          <mxGeometry y="26" width="160" height="64" as="geometry" />
        </mxCell>
        <mxCell id="D6WgMD9xpRHrj_kQxUhB-12" value="" style="line;strokeWidth=1;fillColor=none;align=left;verticalAlign=middle;spacingTop=-1;spacingLeft=3;spacingRight=3;rotatable=0;labelPosition=right;points=[];portConstraint=eastwest;strokeColor=inherit;" vertex="1" parent="D6WgMD9xpRHrj_kQxUhB-10">
          <mxGeometry y="90" width="160" height="8" as="geometry" />
        </mxCell>
        <mxCell id="D6WgMD9xpRHrj_kQxUhB-15" value="&lt;p style=&quot;margin:0px;margin-top:4px;text-align:center;&quot;&gt;&lt;i&gt;&amp;lt;&amp;lt;Interface&amp;gt;&amp;gt;&lt;/i&gt;&lt;/p&gt;&lt;p style=&quot;margin:0px;margin-top:4px;text-align:center;&quot;&gt;&lt;i&gt;&lt;b&gt;Cab&lt;/b&gt;&lt;/i&gt;&lt;br&gt;&lt;/p&gt;&lt;p style=&quot;margin:0px;margin-left:4px;&quot;&gt;&lt;span style=&quot;background-color: initial;&quot;&gt;-CabNo: String&lt;/span&gt;&lt;/p&gt;&lt;div&gt;- driver : Driver&lt;/div&gt;&lt;div&gt;&lt;/div&gt;&lt;p style=&quot;margin:0px;margin-left:4px;&quot;&gt;-seats: int&lt;/p&gt;&lt;p style=&quot;margin:0px;margin-left:4px;&quot;&gt;-features: CabFeatures&lt;/p&gt;&lt;p style=&quot;margin:0px;margin-left:4px;&quot;&gt;&lt;br&gt;&lt;/p&gt;&lt;p style=&quot;margin:0px;margin-left:4px;&quot;&gt;+ method1(Type): Type&lt;br&gt;+ method2(Type, Type): Type&lt;/p&gt;" style="verticalAlign=top;align=left;overflow=fill;html=1;whiteSpace=wrap;" vertex="1" parent="1">
          <mxGeometry x="520" y="410" width="190" height="140" as="geometry" />
        </mxCell>
        <mxCell id="D6WgMD9xpRHrj_kQxUhB-16" value="" style="endArrow=block;dashed=1;endFill=0;endSize=12;html=1;rounded=0;exitX=0.458;exitY=-0.006;exitDx=0;exitDy=0;exitPerimeter=0;entryX=0.185;entryY=1.001;entryDx=0;entryDy=0;entryPerimeter=0;" edge="1" parent="1" source="D6WgMD9xpRHrj_kQxUhB-6" target="D6WgMD9xpRHrj_kQxUhB-15">
          <mxGeometry width="160" relative="1" as="geometry">
            <mxPoint x="450" y="540" as="sourcePoint" />
            <mxPoint x="610" y="540" as="targetPoint" />
          </mxGeometry>
        </mxCell>
        <mxCell id="D6WgMD9xpRHrj_kQxUhB-21" value="RideSharingSystem" style="swimlane;fontStyle=1;align=center;verticalAlign=top;childLayout=stackLayout;horizontal=1;startSize=26;horizontalStack=0;resizeParent=1;resizeParentMax=0;resizeLast=0;collapsible=1;marginBottom=0;whiteSpace=wrap;html=1;" vertex="1" parent="1">
          <mxGeometry x="120" y="896" width="210" height="144" as="geometry" />
        </mxCell>
        <mxCell id="D6WgMD9xpRHrj_kQxUhB-23" value="" style="line;strokeWidth=1;fillColor=none;align=left;verticalAlign=middle;spacingTop=-1;spacingLeft=3;spacingRight=3;rotatable=0;labelPosition=right;points=[];portConstraint=eastwest;strokeColor=inherit;" vertex="1" parent="D6WgMD9xpRHrj_kQxUhB-21">
          <mxGeometry y="26" width="210" height="8" as="geometry" />
        </mxCell>
        <mxCell id="D6WgMD9xpRHrj_kQxUhB-24" value="-rideSearch(RideRequest): List&amp;lt;RideSearch&amp;gt;&lt;div&gt;-bookRide(RideRequest): Ride&lt;/div&gt;&lt;div&gt;-endRide(int): boolean&lt;/div&gt;&lt;div&gt;-accept(RideRequest): boolean&lt;/div&gt;&lt;div&gt;-getRides():List&amp;lt;RideRequest&amp;gt;&lt;/div&gt;" style="text;strokeColor=none;fillColor=none;align=left;verticalAlign=top;spacingLeft=4;spacingRight=4;overflow=hidden;rotatable=0;points=[[0,0.5],[1,0.5]];portConstraint=eastwest;whiteSpace=wrap;html=1;" vertex="1" parent="D6WgMD9xpRHrj_kQxUhB-21">
          <mxGeometry y="34" width="210" height="110" as="geometry" />
        </mxCell>
        <mxCell id="D6WgMD9xpRHrj_kQxUhB-25" value="RideRequest" style="swimlane;fontStyle=1;align=center;verticalAlign=top;childLayout=stackLayout;horizontal=1;startSize=26;horizontalStack=0;resizeParent=1;resizeParentMax=0;resizeLast=0;collapsible=1;marginBottom=0;whiteSpace=wrap;html=1;" vertex="1" parent="1">
          <mxGeometry x="480" y="786" width="160" height="134" as="geometry" />
        </mxCell>
        <mxCell id="D6WgMD9xpRHrj_kQxUhB-26" value="-user: User&lt;div&gt;-startLocation: Location&lt;/div&gt;&lt;div&gt;- vehicleType: VehicleType&lt;br&gt;-&lt;span style=&quot;background-color: initial;&quot;&gt;endLocation: Location&lt;/span&gt;&lt;/div&gt;" style="text;strokeColor=none;fillColor=none;align=left;verticalAlign=top;spacingLeft=4;spacingRight=4;overflow=hidden;rotatable=0;points=[[0,0.5],[1,0.5]];portConstraint=eastwest;whiteSpace=wrap;html=1;" vertex="1" parent="D6WgMD9xpRHrj_kQxUhB-25">
          <mxGeometry y="26" width="160" height="74" as="geometry" />
        </mxCell>
        <mxCell id="D6WgMD9xpRHrj_kQxUhB-27" value="" style="line;strokeWidth=1;fillColor=none;align=left;verticalAlign=middle;spacingTop=-1;spacingLeft=3;spacingRight=3;rotatable=0;labelPosition=right;points=[];portConstraint=eastwest;strokeColor=inherit;" vertex="1" parent="D6WgMD9xpRHrj_kQxUhB-25">
          <mxGeometry y="100" width="160" height="8" as="geometry" />
        </mxCell>
        <mxCell id="D6WgMD9xpRHrj_kQxUhB-28" value="+ method(type): type" style="text;strokeColor=none;fillColor=none;align=left;verticalAlign=top;spacingLeft=4;spacingRight=4;overflow=hidden;rotatable=0;points=[[0,0.5],[1,0.5]];portConstraint=eastwest;whiteSpace=wrap;html=1;" vertex="1" parent="D6WgMD9xpRHrj_kQxUhB-25">
          <mxGeometry y="108" width="160" height="26" as="geometry" />
        </mxCell>
        <mxCell id="D6WgMD9xpRHrj_kQxUhB-29" value="&lt;span style=&quot;font-weight: 400; text-align: left;&quot;&gt;Ride&lt;/span&gt;" style="swimlane;fontStyle=1;align=center;verticalAlign=top;childLayout=stackLayout;horizontal=1;startSize=26;horizontalStack=0;resizeParent=1;resizeParentMax=0;resizeLast=0;collapsible=1;marginBottom=0;whiteSpace=wrap;html=1;" vertex="1" parent="1">
          <mxGeometry x="-460" y="470" width="180" height="154" as="geometry" />
        </mxCell>
        <mxCell id="D6WgMD9xpRHrj_kQxUhB-30" value="+ cab: Cab&lt;div&gt;- rideDetails: RideDetails&lt;br&gt;- estimatedTime: DateAndTime&lt;br&gt;- rideState: RideState&lt;/div&gt;&lt;div&gt;-liveLocation: Location&lt;/div&gt;" style="text;strokeColor=none;fillColor=none;align=left;verticalAlign=top;spacingLeft=4;spacingRight=4;overflow=hidden;rotatable=0;points=[[0,0.5],[1,0.5]];portConstraint=eastwest;whiteSpace=wrap;html=1;" vertex="1" parent="D6WgMD9xpRHrj_kQxUhB-29">
          <mxGeometry y="26" width="180" height="94" as="geometry" />
        </mxCell>
        <mxCell id="D6WgMD9xpRHrj_kQxUhB-31" value="" style="line;strokeWidth=1;fillColor=none;align=left;verticalAlign=middle;spacingTop=-1;spacingLeft=3;spacingRight=3;rotatable=0;labelPosition=right;points=[];portConstraint=eastwest;strokeColor=inherit;" vertex="1" parent="D6WgMD9xpRHrj_kQxUhB-29">
          <mxGeometry y="120" width="180" height="8" as="geometry" />
        </mxCell>
        <mxCell id="D6WgMD9xpRHrj_kQxUhB-32" value="+ method(type): type" style="text;strokeColor=none;fillColor=none;align=left;verticalAlign=top;spacingLeft=4;spacingRight=4;overflow=hidden;rotatable=0;points=[[0,0.5],[1,0.5]];portConstraint=eastwest;whiteSpace=wrap;html=1;" vertex="1" parent="D6WgMD9xpRHrj_kQxUhB-29">
          <mxGeometry y="128" width="180" height="26" as="geometry" />
        </mxCell>
        <mxCell id="D6WgMD9xpRHrj_kQxUhB-33" value="«enum»&lt;br&gt;&lt;b&gt;RideState&lt;br&gt;&lt;br&gt;Ready, Completed, OnGoing&lt;/b&gt;" style="html=1;whiteSpace=wrap;" vertex="1" parent="1">
          <mxGeometry x="440" y="1070" width="150" height="80" as="geometry" />
        </mxCell>
        <mxCell id="D6WgMD9xpRHrj_kQxUhB-34" value="RideSearch" style="swimlane;fontStyle=1;align=center;verticalAlign=top;childLayout=stackLayout;horizontal=1;startSize=26;horizontalStack=0;resizeParent=1;resizeParentMax=0;resizeLast=0;collapsible=1;marginBottom=0;whiteSpace=wrap;html=1;" vertex="1" parent="1">
          <mxGeometry x="120" y="1110" width="180" height="128" as="geometry" />
        </mxCell>
        <mxCell id="D6WgMD9xpRHrj_kQxUhB-35" value="-vehicleType: VehicleType&amp;nbsp;&lt;div&gt;- cost: Double&lt;br&gt;&lt;/div&gt;&lt;div&gt;&lt;br&gt;&lt;/div&gt;&lt;div&gt;&lt;br&gt;&lt;/div&gt;" style="text;strokeColor=none;fillColor=none;align=left;verticalAlign=top;spacingLeft=4;spacingRight=4;overflow=hidden;rotatable=0;points=[[0,0.5],[1,0.5]];portConstraint=eastwest;whiteSpace=wrap;html=1;" vertex="1" parent="D6WgMD9xpRHrj_kQxUhB-34">
          <mxGeometry y="26" width="180" height="94" as="geometry" />
        </mxCell>
        <mxCell id="D6WgMD9xpRHrj_kQxUhB-36" value="" style="line;strokeWidth=1;fillColor=none;align=left;verticalAlign=middle;spacingTop=-1;spacingLeft=3;spacingRight=3;rotatable=0;labelPosition=right;points=[];portConstraint=eastwest;strokeColor=inherit;" vertex="1" parent="D6WgMD9xpRHrj_kQxUhB-34">
          <mxGeometry y="120" width="180" height="8" as="geometry" />
        </mxCell>
        <mxCell id="D6WgMD9xpRHrj_kQxUhB-42" value="RideManager" style="swimlane;fontStyle=1;align=center;verticalAlign=top;childLayout=stackLayout;horizontal=1;startSize=26;horizontalStack=0;resizeParent=1;resizeParentMax=0;resizeLast=0;collapsible=1;marginBottom=0;whiteSpace=wrap;html=1;" vertex="1" parent="1">
          <mxGeometry x="-130" y="584" width="160" height="86" as="geometry" />
        </mxCell>
        <mxCell id="D6WgMD9xpRHrj_kQxUhB-43" value="+ rides:Map&amp;lt;Integer,Ride&amp;gt;&lt;div&gt;&lt;br&gt;&lt;/div&gt;" style="text;strokeColor=none;fillColor=none;align=left;verticalAlign=top;spacingLeft=4;spacingRight=4;overflow=hidden;rotatable=0;points=[[0,0.5],[1,0.5]];portConstraint=eastwest;whiteSpace=wrap;html=1;" vertex="1" parent="D6WgMD9xpRHrj_kQxUhB-42">
          <mxGeometry y="26" width="160" height="26" as="geometry" />
        </mxCell>
        <mxCell id="D6WgMD9xpRHrj_kQxUhB-44" value="" style="line;strokeWidth=1;fillColor=none;align=left;verticalAlign=middle;spacingTop=-1;spacingLeft=3;spacingRight=3;rotatable=0;labelPosition=right;points=[];portConstraint=eastwest;strokeColor=inherit;" vertex="1" parent="D6WgMD9xpRHrj_kQxUhB-42">
          <mxGeometry y="52" width="160" height="8" as="geometry" />
        </mxCell>
        <mxCell id="D6WgMD9xpRHrj_kQxUhB-45" value="+ getRide(type): type&lt;div&gt;&lt;br&gt;&lt;/div&gt;" style="text;strokeColor=none;fillColor=none;align=left;verticalAlign=top;spacingLeft=4;spacingRight=4;overflow=hidden;rotatable=0;points=[[0,0.5],[1,0.5]];portConstraint=eastwest;whiteSpace=wrap;html=1;" vertex="1" parent="D6WgMD9xpRHrj_kQxUhB-42">
          <mxGeometry y="60" width="160" height="26" as="geometry" />
        </mxCell>
        <mxCell id="D6WgMD9xpRHrj_kQxUhB-51" value="RatingStrategy" style="swimlane;fontStyle=1;align=center;verticalAlign=top;childLayout=stackLayout;horizontal=1;startSize=26;horizontalStack=0;resizeParent=1;resizeParentMax=0;resizeLast=0;collapsible=1;marginBottom=0;whiteSpace=wrap;html=1;" vertex="1" parent="1">
          <mxGeometry x="-530" y="954" width="160" height="86" as="geometry" />
        </mxCell>
        <mxCell id="D6WgMD9xpRHrj_kQxUhB-52" value="+ field: type" style="text;strokeColor=none;fillColor=none;align=left;verticalAlign=top;spacingLeft=4;spacingRight=4;overflow=hidden;rotatable=0;points=[[0,0.5],[1,0.5]];portConstraint=eastwest;whiteSpace=wrap;html=1;" vertex="1" parent="D6WgMD9xpRHrj_kQxUhB-51">
          <mxGeometry y="26" width="160" height="26" as="geometry" />
        </mxCell>
        <mxCell id="D6WgMD9xpRHrj_kQxUhB-53" value="" style="line;strokeWidth=1;fillColor=none;align=left;verticalAlign=middle;spacingTop=-1;spacingLeft=3;spacingRight=3;rotatable=0;labelPosition=right;points=[];portConstraint=eastwest;strokeColor=inherit;" vertex="1" parent="D6WgMD9xpRHrj_kQxUhB-51">
          <mxGeometry y="52" width="160" height="8" as="geometry" />
        </mxCell>
        <mxCell id="D6WgMD9xpRHrj_kQxUhB-54" value="+ method(type): type" style="text;strokeColor=none;fillColor=none;align=left;verticalAlign=top;spacingLeft=4;spacingRight=4;overflow=hidden;rotatable=0;points=[[0,0.5],[1,0.5]];portConstraint=eastwest;whiteSpace=wrap;html=1;" vertex="1" parent="D6WgMD9xpRHrj_kQxUhB-51">
          <mxGeometry y="60" width="160" height="26" as="geometry" />
        </mxCell>
        <mxCell id="D6WgMD9xpRHrj_kQxUhB-55" value="DistanceStrategy" style="swimlane;fontStyle=1;align=center;verticalAlign=top;childLayout=stackLayout;horizontal=1;startSize=26;horizontalStack=0;resizeParent=1;resizeParentMax=0;resizeLast=0;collapsible=1;marginBottom=0;whiteSpace=wrap;html=1;" vertex="1" parent="1">
          <mxGeometry x="-130" y="944" width="160" height="86" as="geometry" />
        </mxCell>
        <mxCell id="D6WgMD9xpRHrj_kQxUhB-56" value="+ field: type" style="text;strokeColor=none;fillColor=none;align=left;verticalAlign=top;spacingLeft=4;spacingRight=4;overflow=hidden;rotatable=0;points=[[0,0.5],[1,0.5]];portConstraint=eastwest;whiteSpace=wrap;html=1;" vertex="1" parent="D6WgMD9xpRHrj_kQxUhB-55">
          <mxGeometry y="26" width="160" height="26" as="geometry" />
        </mxCell>
        <mxCell id="D6WgMD9xpRHrj_kQxUhB-57" value="" style="line;strokeWidth=1;fillColor=none;align=left;verticalAlign=middle;spacingTop=-1;spacingLeft=3;spacingRight=3;rotatable=0;labelPosition=right;points=[];portConstraint=eastwest;strokeColor=inherit;" vertex="1" parent="D6WgMD9xpRHrj_kQxUhB-55">
          <mxGeometry y="52" width="160" height="8" as="geometry" />
        </mxCell>
        <mxCell id="D6WgMD9xpRHrj_kQxUhB-58" value="+ method(type): type" style="text;strokeColor=none;fillColor=none;align=left;verticalAlign=top;spacingLeft=4;spacingRight=4;overflow=hidden;rotatable=0;points=[[0,0.5],[1,0.5]];portConstraint=eastwest;whiteSpace=wrap;html=1;" vertex="1" parent="D6WgMD9xpRHrj_kQxUhB-55">
          <mxGeometry y="60" width="160" height="26" as="geometry" />
        </mxCell>
        <mxCell id="D6WgMD9xpRHrj_kQxUhB-59" value="RandomStrategy" style="swimlane;fontStyle=1;align=center;verticalAlign=top;childLayout=stackLayout;horizontal=1;startSize=26;horizontalStack=0;resizeParent=1;resizeParentMax=0;resizeLast=0;collapsible=1;marginBottom=0;whiteSpace=wrap;html=1;" vertex="1" parent="1">
          <mxGeometry x="-330" y="960" width="160" height="86" as="geometry" />
        </mxCell>
        <mxCell id="D6WgMD9xpRHrj_kQxUhB-60" value="+ field: type" style="text;strokeColor=none;fillColor=none;align=left;verticalAlign=top;spacingLeft=4;spacingRight=4;overflow=hidden;rotatable=0;points=[[0,0.5],[1,0.5]];portConstraint=eastwest;whiteSpace=wrap;html=1;" vertex="1" parent="D6WgMD9xpRHrj_kQxUhB-59">
          <mxGeometry y="26" width="160" height="26" as="geometry" />
        </mxCell>
        <mxCell id="D6WgMD9xpRHrj_kQxUhB-61" value="" style="line;strokeWidth=1;fillColor=none;align=left;verticalAlign=middle;spacingTop=-1;spacingLeft=3;spacingRight=3;rotatable=0;labelPosition=right;points=[];portConstraint=eastwest;strokeColor=inherit;" vertex="1" parent="D6WgMD9xpRHrj_kQxUhB-59">
          <mxGeometry y="52" width="160" height="8" as="geometry" />
        </mxCell>
        <mxCell id="D6WgMD9xpRHrj_kQxUhB-62" value="+ method(type): type" style="text;strokeColor=none;fillColor=none;align=left;verticalAlign=top;spacingLeft=4;spacingRight=4;overflow=hidden;rotatable=0;points=[[0,0.5],[1,0.5]];portConstraint=eastwest;whiteSpace=wrap;html=1;" vertex="1" parent="D6WgMD9xpRHrj_kQxUhB-59">
          <mxGeometry y="60" width="160" height="26" as="geometry" />
        </mxCell>
        <mxCell id="D6WgMD9xpRHrj_kQxUhB-63" value="&lt;p style=&quot;margin:0px;margin-top:4px;text-align:center;&quot;&gt;&lt;i&gt;&amp;lt;&amp;lt;Interface&amp;gt;&amp;gt;&amp;nbsp;&lt;/i&gt;&lt;br&gt;&lt;/p&gt;&lt;span style=&quot;font-weight: 700; text-align: center;&quot;&gt;&amp;nbsp; &amp;nbsp; &amp;nbsp; &amp;nbsp; &amp;nbsp; &amp;nbsp;RideMatchStrategy&lt;/span&gt;&lt;br style=&quot;font-weight: 700; text-align: center;&quot;&gt;&lt;p style=&quot;margin:0px;margin-left:4px;&quot;&gt;&lt;br&gt;&lt;/p&gt;&lt;hr size=&quot;1&quot; style=&quot;border-style:solid;&quot;&gt;&lt;p style=&quot;margin:0px;margin-left:4px;&quot;&gt;&lt;span style=&quot;font-weight: 700; text-align: center;&quot;&gt;+match(RideRequest): Ride&lt;/span&gt;&lt;br&gt;&lt;/p&gt;" style="verticalAlign=top;align=left;overflow=fill;html=1;whiteSpace=wrap;" vertex="1" parent="1">
          <mxGeometry x="-320" y="760" width="190" height="140" as="geometry" />
        </mxCell>
        <mxCell id="D6WgMD9xpRHrj_kQxUhB-65" value="" style="endArrow=block;dashed=1;endFill=0;endSize=12;html=1;rounded=0;entryX=0.421;entryY=0.973;entryDx=0;entryDy=0;entryPerimeter=0;exitX=0.625;exitY=-0.011;exitDx=0;exitDy=0;exitPerimeter=0;" edge="1" parent="1" source="D6WgMD9xpRHrj_kQxUhB-51" target="D6WgMD9xpRHrj_kQxUhB-63">
          <mxGeometry width="160" relative="1" as="geometry">
            <mxPoint x="-380" y="900" as="sourcePoint" />
            <mxPoint x="-220" y="900" as="targetPoint" />
          </mxGeometry>
        </mxCell>
        <mxCell id="D6WgMD9xpRHrj_kQxUhB-66" value="" style="endArrow=block;dashed=1;endFill=0;endSize=12;html=1;rounded=0;entryX=0.469;entryY=1.005;entryDx=0;entryDy=0;entryPerimeter=0;exitX=0.452;exitY=0.027;exitDx=0;exitDy=0;exitPerimeter=0;" edge="1" parent="1" source="D6WgMD9xpRHrj_kQxUhB-59" target="D6WgMD9xpRHrj_kQxUhB-63">
          <mxGeometry width="160" relative="1" as="geometry">
            <mxPoint x="-420" y="963" as="sourcePoint" />
            <mxPoint x="-230" y="906" as="targetPoint" />
          </mxGeometry>
        </mxCell>
        <mxCell id="D6WgMD9xpRHrj_kQxUhB-67" value="" style="endArrow=block;dashed=1;endFill=0;endSize=12;html=1;rounded=0;entryX=0.607;entryY=1.016;entryDx=0;entryDy=0;entryPerimeter=0;" edge="1" parent="1" source="D6WgMD9xpRHrj_kQxUhB-55" target="D6WgMD9xpRHrj_kQxUhB-63">
          <mxGeometry width="160" relative="1" as="geometry">
            <mxPoint x="-410" y="973" as="sourcePoint" />
            <mxPoint x="-220" y="916" as="targetPoint" />
          </mxGeometry>
        </mxCell>
        <mxCell id="D6WgMD9xpRHrj_kQxUhB-68" value="" style="endArrow=open;endFill=1;endSize=12;html=1;rounded=0;exitX=0.5;exitY=0;exitDx=0;exitDy=0;entryX=-0.012;entryY=0.107;entryDx=0;entryDy=0;entryPerimeter=0;" edge="1" parent="1" source="D6WgMD9xpRHrj_kQxUhB-63" target="D6WgMD9xpRHrj_kQxUhB-42">
          <mxGeometry width="160" relative="1" as="geometry">
            <mxPoint x="-220" y="680" as="sourcePoint" />
            <mxPoint x="-60" y="680" as="targetPoint" />
          </mxGeometry>
        </mxCell>
        <mxCell id="D6WgMD9xpRHrj_kQxUhB-69" value="" style="endArrow=diamondThin;endFill=1;endSize=24;html=1;rounded=0;entryX=0.57;entryY=1.005;entryDx=0;entryDy=0;entryPerimeter=0;exitX=0.5;exitY=0;exitDx=0;exitDy=0;" edge="1" parent="1" source="D6WgMD9xpRHrj_kQxUhB-10" target="D6WgMD9xpRHrj_kQxUhB-15">
          <mxGeometry width="160" relative="1" as="geometry">
            <mxPoint x="690" y="630" as="sourcePoint" />
            <mxPoint x="633" y="553" as="targetPoint" />
          </mxGeometry>
        </mxCell>
        <mxCell id="D6WgMD9xpRHrj_kQxUhB-70" value="«enum»&lt;br&gt;&lt;span style=&quot;text-align: left;&quot;&gt;VehicleType&lt;/span&gt;&lt;b&gt;&lt;br&gt;&lt;/b&gt;&lt;div&gt;&lt;b&gt;Sedan,SUV,MIN&lt;/b&gt;&lt;/div&gt;" style="html=1;whiteSpace=wrap;" vertex="1" parent="1">
          <mxGeometry x="450" y="980" width="110" height="50" as="geometry" />
        </mxCell>
        <mxCell id="D6WgMD9xpRHrj_kQxUhB-75" value="CostStrategy" style="swimlane;fontStyle=1;align=center;verticalAlign=top;childLayout=stackLayout;horizontal=1;startSize=26;horizontalStack=0;resizeParent=1;resizeParentMax=0;resizeLast=0;collapsible=1;marginBottom=0;whiteSpace=wrap;html=1;" vertex="1" parent="1">
          <mxGeometry x="-170" y="1130" width="160" height="86" as="geometry" />
        </mxCell>
        <mxCell id="D6WgMD9xpRHrj_kQxUhB-76" value="+ field: type" style="text;strokeColor=none;fillColor=none;align=left;verticalAlign=top;spacingLeft=4;spacingRight=4;overflow=hidden;rotatable=0;points=[[0,0.5],[1,0.5]];portConstraint=eastwest;whiteSpace=wrap;html=1;" vertex="1" parent="D6WgMD9xpRHrj_kQxUhB-75">
          <mxGeometry y="26" width="160" height="26" as="geometry" />
        </mxCell>
        <mxCell id="D6WgMD9xpRHrj_kQxUhB-77" value="" style="line;strokeWidth=1;fillColor=none;align=left;verticalAlign=middle;spacingTop=-1;spacingLeft=3;spacingRight=3;rotatable=0;labelPosition=right;points=[];portConstraint=eastwest;strokeColor=inherit;" vertex="1" parent="D6WgMD9xpRHrj_kQxUhB-75">
          <mxGeometry y="52" width="160" height="8" as="geometry" />
        </mxCell>
        <mxCell id="D6WgMD9xpRHrj_kQxUhB-78" value="+ method(type): type" style="text;strokeColor=none;fillColor=none;align=left;verticalAlign=top;spacingLeft=4;spacingRight=4;overflow=hidden;rotatable=0;points=[[0,0.5],[1,0.5]];portConstraint=eastwest;whiteSpace=wrap;html=1;" vertex="1" parent="D6WgMD9xpRHrj_kQxUhB-75">
          <mxGeometry y="60" width="160" height="26" as="geometry" />
        </mxCell>
        <mxCell id="D6WgMD9xpRHrj_kQxUhB-79" value="SimpleCostStragey" style="swimlane;fontStyle=1;align=center;verticalAlign=top;childLayout=stackLayout;horizontal=1;startSize=26;horizontalStack=0;resizeParent=1;resizeParentMax=0;resizeLast=0;collapsible=1;marginBottom=0;whiteSpace=wrap;html=1;" vertex="1" parent="1">
          <mxGeometry x="-300" y="1270" width="160" height="86" as="geometry" />
        </mxCell>
        <mxCell id="D6WgMD9xpRHrj_kQxUhB-80" value="+ field: type" style="text;strokeColor=none;fillColor=none;align=left;verticalAlign=top;spacingLeft=4;spacingRight=4;overflow=hidden;rotatable=0;points=[[0,0.5],[1,0.5]];portConstraint=eastwest;whiteSpace=wrap;html=1;" vertex="1" parent="D6WgMD9xpRHrj_kQxUhB-79">
          <mxGeometry y="26" width="160" height="26" as="geometry" />
        </mxCell>
        <mxCell id="D6WgMD9xpRHrj_kQxUhB-81" value="" style="line;strokeWidth=1;fillColor=none;align=left;verticalAlign=middle;spacingTop=-1;spacingLeft=3;spacingRight=3;rotatable=0;labelPosition=right;points=[];portConstraint=eastwest;strokeColor=inherit;" vertex="1" parent="D6WgMD9xpRHrj_kQxUhB-79">
          <mxGeometry y="52" width="160" height="8" as="geometry" />
        </mxCell>
        <mxCell id="D6WgMD9xpRHrj_kQxUhB-82" value="+ method(type): type" style="text;strokeColor=none;fillColor=none;align=left;verticalAlign=top;spacingLeft=4;spacingRight=4;overflow=hidden;rotatable=0;points=[[0,0.5],[1,0.5]];portConstraint=eastwest;whiteSpace=wrap;html=1;" vertex="1" parent="D6WgMD9xpRHrj_kQxUhB-79">
          <mxGeometry y="60" width="160" height="26" as="geometry" />
        </mxCell>
        <mxCell id="D6WgMD9xpRHrj_kQxUhB-83" value="" style="endArrow=open;endFill=1;endSize=12;html=1;rounded=0;entryX=1;entryY=0;entryDx=0;entryDy=0;exitX=0.435;exitY=-0.028;exitDx=0;exitDy=0;exitPerimeter=0;" edge="1" parent="1" source="D6WgMD9xpRHrj_kQxUhB-21" target="D6WgMD9xpRHrj_kQxUhB-42">
          <mxGeometry width="160" relative="1" as="geometry">
            <mxPoint x="10" y="720" as="sourcePoint" />
            <mxPoint x="170" y="720" as="targetPoint" />
          </mxGeometry>
        </mxCell>
        <mxCell id="D6WgMD9xpRHrj_kQxUhB-84" value="" style="endArrow=open;endFill=1;endSize=12;html=1;rounded=0;entryX=0.994;entryY=0.096;entryDx=0;entryDy=0;entryPerimeter=0;exitX=-0.011;exitY=0.093;exitDx=0;exitDy=0;exitPerimeter=0;" edge="1" parent="1" source="D6WgMD9xpRHrj_kQxUhB-21" target="D6WgMD9xpRHrj_kQxUhB-63">
          <mxGeometry width="160" relative="1" as="geometry">
            <mxPoint x="-70" y="850" as="sourcePoint" />
            <mxPoint x="90" y="850" as="targetPoint" />
          </mxGeometry>
        </mxCell>
        <mxCell id="D6WgMD9xpRHrj_kQxUhB-86" value="" style="endArrow=diamondThin;endFill=0;endSize=24;html=1;rounded=0;entryX=0.172;entryY=0;entryDx=0;entryDy=0;entryPerimeter=0;exitX=1;exitY=0;exitDx=0;exitDy=0;" edge="1" parent="1" source="D6WgMD9xpRHrj_kQxUhB-29" target="D6WgMD9xpRHrj_kQxUhB-42">
          <mxGeometry width="160" relative="1" as="geometry">
            <mxPoint x="-220" y="480" as="sourcePoint" />
            <mxPoint x="-60" y="480" as="targetPoint" />
          </mxGeometry>
        </mxCell>
        <mxCell id="D6WgMD9xpRHrj_kQxUhB-87" value="" style="endArrow=block;dashed=1;endFill=0;endSize=12;html=1;rounded=0;entryX=0.284;entryY=1.037;entryDx=0;entryDy=0;entryPerimeter=0;exitX=0.416;exitY=-0.021;exitDx=0;exitDy=0;exitPerimeter=0;" edge="1" parent="1" source="D6WgMD9xpRHrj_kQxUhB-79" target="D6WgMD9xpRHrj_kQxUhB-78">
          <mxGeometry width="160" relative="1" as="geometry">
            <mxPoint x="-460" y="1300" as="sourcePoint" />
            <mxPoint x="-300" y="1300" as="targetPoint" />
          </mxGeometry>
        </mxCell>
        <mxCell id="D6WgMD9xpRHrj_kQxUhB-88" value="" style="endArrow=open;endFill=1;endSize=12;html=1;rounded=0;exitX=0.028;exitY=0.984;exitDx=0;exitDy=0;exitPerimeter=0;entryX=1;entryY=0;entryDx=0;entryDy=0;" edge="1" parent="1" source="D6WgMD9xpRHrj_kQxUhB-24" target="D6WgMD9xpRHrj_kQxUhB-75">
          <mxGeometry width="160" relative="1" as="geometry">
            <mxPoint x="-130" y="1140" as="sourcePoint" />
            <mxPoint x="30" y="1140" as="targetPoint" />
          </mxGeometry>
        </mxCell>
      </root>
    </mxGraphModel>
  </diagram>
</mxfile>
